<mxfile host="app.diagrams.net" modified="2021-05-12T02:15:10.344Z" agent="5.0 (Macintosh; Intel Mac OS X 10_15_7) AppleWebKit/537.36 (KHTML, like Gecko) Chrome/90.0.4430.93 Safari/537.36" etag="e6YMz7TkaoDl1hEqKrfv" version="14.6.10" type="github">
  <diagram id="EkmQk6Fi6KqUAJPBxEY3" name="Page-1">
    <mxGraphModel dx="988" dy="554" grid="0" gridSize="10" guides="1" tooltips="1" connect="1" arrows="1" fold="1" page="1" pageScale="1" pageWidth="827" pageHeight="1169" math="0" shadow="0">
      <root>
        <mxCell id="0" />
        <mxCell id="1" parent="0" />
        <mxCell id="wHUXiG9wvYwRY8z_k77Z-1" value="" style="triangle;whiteSpace=wrap;html=1;rotation=90;" vertex="1" parent="1">
          <mxGeometry x="133.75" y="223.75" width="130" height="97.5" as="geometry" />
        </mxCell>
        <mxCell id="wHUXiG9wvYwRY8z_k77Z-4" value="" style="line;strokeWidth=1;html=1;" vertex="1" parent="1">
          <mxGeometry x="164" y="241" width="68.75" height="10" as="geometry" />
        </mxCell>
        <mxCell id="wHUXiG9wvYwRY8z_k77Z-5" value="" style="line;strokeWidth=1;html=1;" vertex="1" parent="1">
          <mxGeometry x="179" y="279" width="40" height="10" as="geometry" />
        </mxCell>
        <mxCell id="wHUXiG9wvYwRY8z_k77Z-6" value="承接页UV" style="text;html=1;strokeColor=none;fillColor=none;align=center;verticalAlign=middle;whiteSpace=wrap;rounded=0;" vertex="1" parent="1">
          <mxGeometry x="171.75" y="221" width="61" height="20" as="geometry" />
        </mxCell>
        <mxCell id="wHUXiG9wvYwRY8z_k77Z-8" value="成交人数" style="text;html=1;strokeColor=none;fillColor=none;align=center;verticalAlign=middle;whiteSpace=wrap;rounded=0;" vertex="1" parent="1">
          <mxGeometry x="167.88" y="251" width="61" height="20" as="geometry" />
        </mxCell>
        <mxCell id="wHUXiG9wvYwRY8z_k77Z-9" value="到端" style="text;html=1;strokeColor=none;fillColor=none;align=center;verticalAlign=middle;whiteSpace=wrap;rounded=0;" vertex="1" parent="1">
          <mxGeometry x="167.87" y="289" width="61" height="20" as="geometry" />
        </mxCell>
        <mxCell id="wHUXiG9wvYwRY8z_k77Z-10" value="1.0w" style="text;html=1;strokeColor=none;fillColor=none;align=center;verticalAlign=middle;whiteSpace=wrap;rounded=0;" vertex="1" parent="1">
          <mxGeometry x="243.39" y="221" width="40" height="20" as="geometry" />
        </mxCell>
        <mxCell id="wHUXiG9wvYwRY8z_k77Z-11" value="1204" style="text;html=1;strokeColor=none;fillColor=none;align=center;verticalAlign=middle;whiteSpace=wrap;rounded=0;" vertex="1" parent="1">
          <mxGeometry x="232.75" y="259" width="40" height="20" as="geometry" />
        </mxCell>
        <mxCell id="wHUXiG9wvYwRY8z_k77Z-12" value="42" style="text;html=1;strokeColor=none;fillColor=none;align=center;verticalAlign=middle;whiteSpace=wrap;rounded=0;" vertex="1" parent="1">
          <mxGeometry x="219" y="296" width="40" height="20" as="geometry" />
        </mxCell>
        <mxCell id="wHUXiG9wvYwRY8z_k77Z-13" value="" style="shape=curlyBracket;whiteSpace=wrap;html=1;rounded=1;flipH=1;strokeWidth=1;rotation=15;" vertex="1" parent="1">
          <mxGeometry x="274.57000000000005" y="232" width="8.82" height="37" as="geometry" />
        </mxCell>
        <mxCell id="wHUXiG9wvYwRY8z_k77Z-15" value="" style="shape=curlyBracket;whiteSpace=wrap;html=1;rounded=1;flipH=1;strokeWidth=1;rotation=15;" vertex="1" parent="1">
          <mxGeometry x="263.93" y="279" width="8.82" height="37" as="geometry" />
        </mxCell>
        <mxCell id="wHUXiG9wvYwRY8z_k77Z-16" value="0.11" style="text;html=1;strokeColor=none;fillColor=none;align=center;verticalAlign=middle;whiteSpace=wrap;rounded=0;" vertex="1" parent="1">
          <mxGeometry x="287" y="243" width="40" height="20" as="geometry" />
        </mxCell>
        <mxCell id="wHUXiG9wvYwRY8z_k77Z-18" value="0.034" style="text;html=1;align=center;verticalAlign=middle;resizable=0;points=[];autosize=1;strokeColor=none;" vertex="1" parent="1">
          <mxGeometry x="272.75" y="289" width="50" height="20" as="geometry" />
        </mxCell>
        <mxCell id="wHUXiG9wvYwRY8z_k77Z-19" value="" style="endArrow=classic;html=1;rounded=0;fillColor=#dae8fc;strokeColor=#6c8ebf;" edge="1" parent="1">
          <mxGeometry width="50" height="50" relative="1" as="geometry">
            <mxPoint x="136" y="197" as="sourcePoint" />
            <mxPoint x="136" y="330" as="targetPoint" />
          </mxGeometry>
        </mxCell>
        <mxCell id="wHUXiG9wvYwRY8z_k77Z-20" value="积&lt;br&gt;分&lt;br&gt;频&lt;br&gt;道&lt;br&gt;购&lt;br&gt;买&lt;br&gt;" style="text;html=1;strokeColor=none;fillColor=none;align=center;verticalAlign=middle;whiteSpace=wrap;rounded=0;rotation=0;" vertex="1" parent="1">
          <mxGeometry x="106" y="208" width="40" height="101" as="geometry" />
        </mxCell>
        <mxCell id="wHUXiG9wvYwRY8z_k77Z-21" value="" style="triangle;whiteSpace=wrap;html=1;rotation=90;" vertex="1" parent="1">
          <mxGeometry x="393.75" y="215.75" width="130" height="97.5" as="geometry" />
        </mxCell>
        <mxCell id="wHUXiG9wvYwRY8z_k77Z-22" value="" style="line;strokeWidth=1;html=1;" vertex="1" parent="1">
          <mxGeometry x="424" y="233" width="68.75" height="10" as="geometry" />
        </mxCell>
        <mxCell id="wHUXiG9wvYwRY8z_k77Z-23" value="" style="line;strokeWidth=1;html=1;" vertex="1" parent="1">
          <mxGeometry x="439" y="271" width="40" height="10" as="geometry" />
        </mxCell>
        <mxCell id="wHUXiG9wvYwRY8z_k77Z-24" value="承接页UV" style="text;html=1;strokeColor=none;fillColor=none;align=center;verticalAlign=middle;whiteSpace=wrap;rounded=0;" vertex="1" parent="1">
          <mxGeometry x="431.75" y="213" width="61" height="20" as="geometry" />
        </mxCell>
        <mxCell id="wHUXiG9wvYwRY8z_k77Z-25" value="开卡人数" style="text;html=1;strokeColor=none;fillColor=none;align=center;verticalAlign=middle;whiteSpace=wrap;rounded=0;" vertex="1" parent="1">
          <mxGeometry x="427.88" y="243" width="61" height="20" as="geometry" />
        </mxCell>
        <mxCell id="wHUXiG9wvYwRY8z_k77Z-26" value="到端" style="text;html=1;strokeColor=none;fillColor=none;align=center;verticalAlign=middle;whiteSpace=wrap;rounded=0;" vertex="1" parent="1">
          <mxGeometry x="427.87" y="281" width="61" height="20" as="geometry" />
        </mxCell>
        <mxCell id="wHUXiG9wvYwRY8z_k77Z-27" value="23w" style="text;html=1;strokeColor=none;fillColor=none;align=center;verticalAlign=middle;whiteSpace=wrap;rounded=0;" vertex="1" parent="1">
          <mxGeometry x="503.39" y="213" width="40" height="20" as="geometry" />
        </mxCell>
        <mxCell id="wHUXiG9wvYwRY8z_k77Z-28" value="1.8w" style="text;html=1;strokeColor=none;fillColor=none;align=center;verticalAlign=middle;whiteSpace=wrap;rounded=0;" vertex="1" parent="1">
          <mxGeometry x="492.75" y="251" width="40" height="20" as="geometry" />
        </mxCell>
        <mxCell id="wHUXiG9wvYwRY8z_k77Z-29" value="3092" style="text;html=1;strokeColor=none;fillColor=none;align=center;verticalAlign=middle;whiteSpace=wrap;rounded=0;" vertex="1" parent="1">
          <mxGeometry x="479" y="289" width="40" height="20" as="geometry" />
        </mxCell>
        <mxCell id="wHUXiG9wvYwRY8z_k77Z-30" value="" style="shape=curlyBracket;whiteSpace=wrap;html=1;rounded=1;flipH=1;strokeWidth=1;rotation=15;" vertex="1" parent="1">
          <mxGeometry x="534.57" y="224" width="8.82" height="37" as="geometry" />
        </mxCell>
        <mxCell id="wHUXiG9wvYwRY8z_k77Z-31" value="" style="shape=curlyBracket;whiteSpace=wrap;html=1;rounded=1;flipH=1;strokeWidth=1;rotation=15;" vertex="1" parent="1">
          <mxGeometry x="523.9300000000001" y="271" width="8.82" height="37" as="geometry" />
        </mxCell>
        <mxCell id="wHUXiG9wvYwRY8z_k77Z-32" value="0.07" style="text;html=1;strokeColor=none;fillColor=none;align=center;verticalAlign=middle;whiteSpace=wrap;rounded=0;" vertex="1" parent="1">
          <mxGeometry x="547" y="235" width="40" height="20" as="geometry" />
        </mxCell>
        <mxCell id="wHUXiG9wvYwRY8z_k77Z-33" value="0.16" style="text;html=1;align=center;verticalAlign=middle;resizable=0;points=[];autosize=1;strokeColor=none;" vertex="1" parent="1">
          <mxGeometry x="537.75" y="281" width="40" height="20" as="geometry" />
        </mxCell>
        <mxCell id="wHUXiG9wvYwRY8z_k77Z-35" value="双&lt;br&gt;11&lt;br&gt;互&lt;br&gt;动&lt;br&gt;城" style="text;html=1;strokeColor=none;fillColor=none;align=center;verticalAlign=middle;whiteSpace=wrap;rounded=0;" vertex="1" parent="1">
          <mxGeometry x="370" y="213" width="36" height="78" as="geometry" />
        </mxCell>
        <mxCell id="wHUXiG9wvYwRY8z_k77Z-36" value="" style="endArrow=classic;html=1;rounded=0;fillColor=#dae8fc;strokeColor=#6c8ebf;" edge="1" parent="1">
          <mxGeometry width="50" height="50" relative="1" as="geometry">
            <mxPoint x="400" y="194.5" as="sourcePoint" />
            <mxPoint x="400" y="327.5" as="targetPoint" />
          </mxGeometry>
        </mxCell>
        <mxCell id="wHUXiG9wvYwRY8z_k77Z-37" value="*5.9数据" style="text;html=1;strokeColor=none;fillColor=none;align=center;verticalAlign=middle;whiteSpace=wrap;rounded=0;" vertex="1" parent="1">
          <mxGeometry x="110" y="341" width="54" height="18" as="geometry" />
        </mxCell>
        <mxCell id="wHUXiG9wvYwRY8z_k77Z-38" value="*2020双11日平均值" style="text;html=1;strokeColor=none;fillColor=none;align=center;verticalAlign=middle;whiteSpace=wrap;rounded=0;" vertex="1" parent="1">
          <mxGeometry x="349" y="341" width="110" height="21" as="geometry" />
        </mxCell>
        <mxCell id="wHUXiG9wvYwRY8z_k77Z-39" value="" style="triangle;whiteSpace=wrap;html=1;rotation=90;" vertex="1" parent="1">
          <mxGeometry x="133.75" y="420.75" width="130" height="97.5" as="geometry" />
        </mxCell>
        <mxCell id="wHUXiG9wvYwRY8z_k77Z-40" value="" style="line;strokeWidth=1;html=1;" vertex="1" parent="1">
          <mxGeometry x="164" y="438" width="68.75" height="10" as="geometry" />
        </mxCell>
        <mxCell id="wHUXiG9wvYwRY8z_k77Z-41" value="" style="line;strokeWidth=1;html=1;" vertex="1" parent="1">
          <mxGeometry x="179" y="476" width="40" height="10" as="geometry" />
        </mxCell>
        <mxCell id="wHUXiG9wvYwRY8z_k77Z-42" value="承接页UV" style="text;html=1;strokeColor=none;fillColor=none;align=center;verticalAlign=middle;whiteSpace=wrap;rounded=0;" vertex="1" parent="1">
          <mxGeometry x="171.75" y="418" width="61" height="20" as="geometry" />
        </mxCell>
        <mxCell id="wHUXiG9wvYwRY8z_k77Z-43" value="开卡数" style="text;html=1;strokeColor=none;fillColor=none;align=center;verticalAlign=middle;whiteSpace=wrap;rounded=0;" vertex="1" parent="1">
          <mxGeometry x="167.88" y="448" width="61" height="20" as="geometry" />
        </mxCell>
        <mxCell id="wHUXiG9wvYwRY8z_k77Z-44" value="到端" style="text;html=1;strokeColor=none;fillColor=none;align=center;verticalAlign=middle;whiteSpace=wrap;rounded=0;" vertex="1" parent="1">
          <mxGeometry x="167.87" y="486" width="61" height="20" as="geometry" />
        </mxCell>
        <mxCell id="wHUXiG9wvYwRY8z_k77Z-45" value="5618" style="text;html=1;strokeColor=none;fillColor=none;align=center;verticalAlign=middle;whiteSpace=wrap;rounded=0;" vertex="1" parent="1">
          <mxGeometry x="243.39" y="418" width="40" height="20" as="geometry" />
        </mxCell>
        <mxCell id="wHUXiG9wvYwRY8z_k77Z-46" value="821" style="text;html=1;strokeColor=none;fillColor=none;align=center;verticalAlign=middle;whiteSpace=wrap;rounded=0;" vertex="1" parent="1">
          <mxGeometry x="232.75" y="456" width="40" height="20" as="geometry" />
        </mxCell>
        <mxCell id="wHUXiG9wvYwRY8z_k77Z-47" value="405" style="text;html=1;strokeColor=none;fillColor=none;align=center;verticalAlign=middle;whiteSpace=wrap;rounded=0;" vertex="1" parent="1">
          <mxGeometry x="219" y="493" width="40" height="20" as="geometry" />
        </mxCell>
        <mxCell id="wHUXiG9wvYwRY8z_k77Z-48" value="" style="shape=curlyBracket;whiteSpace=wrap;html=1;rounded=1;flipH=1;strokeWidth=1;rotation=15;" vertex="1" parent="1">
          <mxGeometry x="274.57000000000005" y="429" width="8.82" height="37" as="geometry" />
        </mxCell>
        <mxCell id="wHUXiG9wvYwRY8z_k77Z-49" value="" style="shape=curlyBracket;whiteSpace=wrap;html=1;rounded=1;flipH=1;strokeWidth=1;rotation=15;" vertex="1" parent="1">
          <mxGeometry x="263.93" y="476" width="8.82" height="37" as="geometry" />
        </mxCell>
        <mxCell id="wHUXiG9wvYwRY8z_k77Z-51" value="" style="endArrow=classic;html=1;rounded=0;fillColor=#dae8fc;strokeColor=#6c8ebf;" edge="1" parent="1">
          <mxGeometry width="50" height="50" relative="1" as="geometry">
            <mxPoint x="136" y="394" as="sourcePoint" />
            <mxPoint x="136" y="527" as="targetPoint" />
          </mxGeometry>
        </mxCell>
        <mxCell id="wHUXiG9wvYwRY8z_k77Z-52" value="花&lt;br&gt;呗&lt;br&gt;金&lt;br&gt;开&lt;br&gt;卡" style="text;html=1;strokeColor=none;fillColor=none;align=center;verticalAlign=middle;whiteSpace=wrap;rounded=0;rotation=0;" vertex="1" parent="1">
          <mxGeometry x="106" y="405" width="40" height="101" as="geometry" />
        </mxCell>
        <mxCell id="wHUXiG9wvYwRY8z_k77Z-53" value="*5.9数据" style="text;html=1;strokeColor=none;fillColor=none;align=center;verticalAlign=middle;whiteSpace=wrap;rounded=0;" vertex="1" parent="1">
          <mxGeometry x="110" y="538" width="54" height="18" as="geometry" />
        </mxCell>
        <mxCell id="wHUXiG9wvYwRY8z_k77Z-54" value="" style="triangle;whiteSpace=wrap;html=1;rotation=90;" vertex="1" parent="1">
          <mxGeometry x="344.5" y="651.75" width="130" height="97.5" as="geometry" />
        </mxCell>
        <mxCell id="wHUXiG9wvYwRY8z_k77Z-55" value="" style="line;strokeWidth=1;html=1;" vertex="1" parent="1">
          <mxGeometry x="374.75" y="669" width="68.75" height="10" as="geometry" />
        </mxCell>
        <mxCell id="wHUXiG9wvYwRY8z_k77Z-56" value="" style="line;strokeWidth=1;html=1;" vertex="1" parent="1">
          <mxGeometry x="389.75" y="707" width="40" height="10" as="geometry" />
        </mxCell>
        <mxCell id="wHUXiG9wvYwRY8z_k77Z-57" value="承接页UV" style="text;html=1;strokeColor=none;fillColor=none;align=center;verticalAlign=middle;whiteSpace=wrap;rounded=0;" vertex="1" parent="1">
          <mxGeometry x="382.5" y="649" width="61" height="20" as="geometry" />
        </mxCell>
        <mxCell id="wHUXiG9wvYwRY8z_k77Z-58" value="开卡数" style="text;html=1;strokeColor=none;fillColor=none;align=center;verticalAlign=middle;whiteSpace=wrap;rounded=0;" vertex="1" parent="1">
          <mxGeometry x="378.63" y="679" width="61" height="20" as="geometry" />
        </mxCell>
        <mxCell id="wHUXiG9wvYwRY8z_k77Z-59" value="到端" style="text;html=1;strokeColor=none;fillColor=none;align=center;verticalAlign=middle;whiteSpace=wrap;rounded=0;" vertex="1" parent="1">
          <mxGeometry x="378.62" y="717" width="61" height="20" as="geometry" />
        </mxCell>
        <mxCell id="wHUXiG9wvYwRY8z_k77Z-60" value="1.2w" style="text;html=1;strokeColor=none;fillColor=none;align=center;verticalAlign=middle;whiteSpace=wrap;rounded=0;" vertex="1" parent="1">
          <mxGeometry x="454.14" y="649" width="40" height="20" as="geometry" />
        </mxCell>
        <mxCell id="wHUXiG9wvYwRY8z_k77Z-61" value="373" style="text;html=1;strokeColor=none;fillColor=none;align=center;verticalAlign=middle;whiteSpace=wrap;rounded=0;" vertex="1" parent="1">
          <mxGeometry x="443.5" y="687" width="40" height="20" as="geometry" />
        </mxCell>
        <mxCell id="wHUXiG9wvYwRY8z_k77Z-62" value="69" style="text;html=1;strokeColor=none;fillColor=none;align=center;verticalAlign=middle;whiteSpace=wrap;rounded=0;" vertex="1" parent="1">
          <mxGeometry x="429.75" y="724" width="40" height="20" as="geometry" />
        </mxCell>
        <mxCell id="wHUXiG9wvYwRY8z_k77Z-63" value="" style="shape=curlyBracket;whiteSpace=wrap;html=1;rounded=1;flipH=1;strokeWidth=1;rotation=15;" vertex="1" parent="1">
          <mxGeometry x="485.32000000000005" y="660" width="8.82" height="37" as="geometry" />
        </mxCell>
        <mxCell id="wHUXiG9wvYwRY8z_k77Z-64" value="" style="shape=curlyBracket;whiteSpace=wrap;html=1;rounded=1;flipH=1;strokeWidth=1;rotation=15;" vertex="1" parent="1">
          <mxGeometry x="474.68000000000006" y="707" width="8.82" height="37" as="geometry" />
        </mxCell>
        <mxCell id="wHUXiG9wvYwRY8z_k77Z-65" value="0.18" style="text;html=1;align=center;verticalAlign=middle;resizable=0;points=[];autosize=1;strokeColor=none;" vertex="1" parent="1">
          <mxGeometry x="492.5" y="718" width="33" height="18" as="geometry" />
        </mxCell>
        <mxCell id="wHUXiG9wvYwRY8z_k77Z-66" value="" style="endArrow=classic;html=1;rounded=0;fillColor=#dae8fc;strokeColor=#6c8ebf;" edge="1" parent="1">
          <mxGeometry width="50" height="50" relative="1" as="geometry">
            <mxPoint x="346.75" y="625" as="sourcePoint" />
            <mxPoint x="346.75" y="758" as="targetPoint" />
          </mxGeometry>
        </mxCell>
        <mxCell id="wHUXiG9wvYwRY8z_k77Z-67" value="领&lt;br&gt;券&lt;br&gt;链&lt;br&gt;路" style="text;html=1;strokeColor=none;fillColor=none;align=center;verticalAlign=middle;whiteSpace=wrap;rounded=0;rotation=0;" vertex="1" parent="1">
          <mxGeometry x="316.75" y="636" width="40" height="101" as="geometry" />
        </mxCell>
        <mxCell id="wHUXiG9wvYwRY8z_k77Z-68" value="*5.9数据" style="text;html=1;strokeColor=none;fillColor=none;align=center;verticalAlign=middle;whiteSpace=wrap;rounded=0;" vertex="1" parent="1">
          <mxGeometry x="320.75" y="769" width="54" height="18" as="geometry" />
        </mxCell>
        <mxCell id="wHUXiG9wvYwRY8z_k77Z-69" value="0.029" style="text;html=1;align=center;verticalAlign=middle;resizable=0;points=[];autosize=1;strokeColor=none;" vertex="1" parent="1">
          <mxGeometry x="497.75" y="672" width="40" height="18" as="geometry" />
        </mxCell>
        <mxCell id="wHUXiG9wvYwRY8z_k77Z-70" value="0.14" style="text;html=1;strokeColor=none;fillColor=none;align=center;verticalAlign=middle;whiteSpace=wrap;rounded=0;" vertex="1" parent="1">
          <mxGeometry x="291" y="441" width="40" height="20" as="geometry" />
        </mxCell>
        <mxCell id="wHUXiG9wvYwRY8z_k77Z-71" value="0.49" style="text;html=1;strokeColor=none;fillColor=none;align=center;verticalAlign=middle;whiteSpace=wrap;rounded=0;" vertex="1" parent="1">
          <mxGeometry x="280" y="485" width="40" height="20" as="geometry" />
        </mxCell>
      </root>
    </mxGraphModel>
  </diagram>
</mxfile>
